<?xml version="1.0" standalone="no"?>
<!DOCTYPE svg PUBLIC "-//W3C//DTD SVG 20010904//EN"
 "http://www.w3.org/TR/2001/REC-SVG-20010904/DTD/svg10.dtd">
<svg version="1.0" xmlns="http://www.w3.org/2000/svg"
 width="1024.000000pt" height="1024.000000pt" viewBox="0 0 1024.000000 1024.000000"
 preserveAspectRatio="xMidYMid meet">

<g transform="translate(0.000000,1024.000000) scale(0.100000,-0.100000)"
fill="#000000" stroke="none">
<path d="M340 10070 l0 -170 -170 0 -170 0 0 -170 0 -170 170 0 170 0 0 -170
0 -170 170 0 170 0 2 168 3 167 168 3 167 2 0 170 0 170 -170 0 -170 0 0 170
0 170 -170 0 -170 0 0 -170z"/>
<path d="M2560 10070 l0 -170 170 0 170 0 0 170 0 170 -170 0 -170 0 0 -170z"/>
<path d="M9031 10066 c-62 -62 -112 -119 -110 -124 2 -6 42 -51 89 -99 143
-147 191 -204 293 -348 133 -185 263 -421 338 -612 215 -544 299 -1158 240
-1733 -6 -52 -15 -142 -20 -200 -6 -58 -15 -127 -21 -155 -9 -46 -16 -82 -40
-215 -19 -107 -31 -160 -51 -230 -11 -41 -25 -88 -29 -105 -10 -35 -46 -169
-55 -205 -4 -14 -10 -34 -15 -45 -4 -11 -13 -36 -20 -55 -7 -19 -16 -44 -20
-55 -4 -11 -13 -36 -20 -55 -7 -19 -16 -44 -20 -55 -4 -11 -17 -45 -28 -75
-48 -131 -51 -138 -142 -335 -15 -33 -38 -82 -50 -110 -24 -56 -58 -123 -89
-178 -46 -81 -59 -105 -101 -182 -86 -159 -352 -569 -415 -641 -5 -7 -35 -44
-65 -84 -71 -93 -221 -283 -229 -290 -3 -3 -49 -52 -101 -110 -219 -242 -183
-205 -370 -382 -131 -123 -201 -184 -300 -258 -18 -14 -70 -55 -115 -91 -46
-36 -114 -85 -151 -109 -38 -24 -116 -74 -174 -111 -58 -37 -141 -86 -185
-110 -212 -111 -274 -143 -320 -161 -27 -11 -66 -26 -85 -35 -19 -8 -45 -19
-57 -24 -13 -5 -33 -13 -45 -18 -13 -5 -39 -16 -59 -25 -38 -16 -202 -72 -254
-86 -377 -102 -646 -140 -979 -140 -98 0 -206 4 -240 9 -33 6 -97 15 -141 21
-44 6 -93 15 -110 19 -16 5 -57 14 -90 21 -33 7 -91 23 -130 37 -38 13 -90 31
-115 39 -52 18 -82 31 -205 90 -299 144 -581 371 -726 586 -33 48 -59 89 -59
92 0 3 -13 33 -29 68 -16 35 -38 90 -49 123 -19 58 -27 88 -53 205 -18 75 -18
425 -1 510 8 36 18 88 23 115 22 112 75 286 119 390 129 302 314 578 535 801
104 104 216 190 295 226 19 9 58 26 85 38 75 34 195 62 195 46 0 -4 -14 -21
-31 -39 -55 -57 -146 -205 -180 -292 -39 -100 -61 -214 -63 -325 -1 -71 -4
-79 -52 -160 -51 -87 -120 -246 -135 -312 -5 -21 -14 -57 -19 -80 -35 -139
-32 -377 5 -518 24 -92 91 -223 156 -305 159 -200 470 -390 744 -454 28 -7 66
-16 85 -21 60 -14 203 -30 276 -30 162 0 491 47 624 90 14 4 59 18 100 30 41
12 85 25 98 31 28 11 65 26 95 38 59 23 80 32 194 90 314 157 572 369 903 741
47 52 88 97 91 100 10 10 194 251 254 334 98 137 212 318 290 461 21 39 50 93
65 120 38 69 65 122 89 178 27 60 55 124 81 182 28 61 36 83 82 210 59 165 78
223 99 303 10 39 28 107 40 150 24 91 42 179 59 282 6 41 15 93 20 115 35 162
47 696 21 900 -13 100 -36 239 -51 305 -4 19 -13 60 -20 90 -24 111 -29 128
-78 266 -51 147 -180 423 -232 499 -16 24 -30 46 -30 49 0 8 -98 142 -161 221
-112 139 -316 333 -469 446 -47 34 -117 86 -156 116 -40 29 -74 53 -77 53 -3
0 -42 23 -87 50 -45 28 -83 50 -85 50 -1 0 -33 18 -69 40 -36 22 -68 40 -71
40 -2 0 -35 14 -72 31 -77 36 -164 75 -208 94 -44 20 -321 110 -380 124 -27 7
-66 16 -85 21 -35 9 -92 22 -172 39 -24 5 -83 15 -133 21 -49 6 -119 15 -155
21 -89 13 -684 13 -822 0 -222 -22 -379 -45 -558 -82 -64 -13 -299 -69 -335
-79 -176 -52 -360 -112 -430 -140 -11 -4 -47 -18 -80 -30 -33 -12 -79 -31
-102 -41 -24 -11 -45 -19 -48 -19 -2 0 -33 -13 -67 -28 -35 -16 -79 -35 -98
-42 -38 -16 -346 -171 -422 -213 -27 -15 -67 -38 -90 -51 -24 -13 -81 -47
-128 -76 -47 -29 -114 -70 -150 -92 -79 -48 -368 -254 -480 -341 -38 -29 -226
-182 -230 -187 -3 -3 -43 -39 -90 -80 -195 -172 -540 -507 -540 -525 0 -14
223 -235 237 -235 6 0 53 44 104 98 442 461 981 884 1479 1160 25 13 70 39
100 56 62 36 344 176 353 176 4 0 30 11 59 24 29 13 79 35 111 50 32 14 61 26
65 26 7 0 142 51 187 71 11 4 52 18 90 30 39 11 90 28 115 36 25 9 59 19 75
23 290 79 377 98 645 140 153 25 253 31 580 37 326 5 379 3 600 -28 41 -6 111
-19 155 -29 44 -10 105 -24 135 -31 60 -13 336 -102 385 -124 194 -85 269
-122 360 -175 50 -29 106 -62 125 -72 36 -21 112 -72 140 -94 8 -7 56 -43 107
-81 50 -37 113 -88 140 -113 27 -25 73 -67 103 -95 50 -45 140 -145 213 -235
15 -19 60 -84 99 -145 149 -231 263 -515 323 -805 40 -194 49 -292 49 -575 1
-265 -7 -385 -35 -535 -6 -30 -15 -80 -20 -110 -16 -82 -49 -232 -58 -260 -5
-14 -14 -43 -19 -65 -23 -82 -61 -203 -92 -285 -17 -47 -38 -104 -46 -127 -8
-23 -33 -82 -55 -130 -22 -48 -47 -104 -56 -123 -23 -53 -77 -160 -103 -205
-23 -41 -51 -90 -94 -169 -34 -60 -254 -386 -312 -461 -114 -147 -155 -197
-243 -295 -235 -262 -416 -424 -606 -542 -307 -192 -616 -297 -990 -337 -148
-16 -224 -12 -380 20 -266 56 -554 237 -641 404 -68 130 -102 294 -83 405 15
93 32 161 41 166 4 3 8 14 8 25 0 29 15 23 84 -34 156 -128 370 -194 543 -166
63 10 77 9 115 -6 124 -50 214 -67 363 -66 152 1 223 12 363 58 319 104 571
306 858 690 81 108 172 257 246 403 58 115 108 226 108 241 0 5 4 17 10 27 12
21 60 165 71 212 4 19 13 53 19 75 10 40 13 55 45 230 19 106 23 467 5 568
-21 124 -47 241 -60 272 -5 11 -19 49 -31 85 -47 140 -137 297 -245 428 -106
129 -225 234 -455 402 -33 24 -139 90 -144 90 -2 0 -33 18 -69 40 -36 22 -68
40 -71 40 -3 0 -38 15 -78 34 -40 18 -88 41 -107 49 -57 25 -240 87 -305 103
-153 38 -226 54 -305 64 -47 6 -113 15 -146 20 -82 13 -461 13 -582 0 -144
-16 -261 -31 -312 -40 -163 -30 -378 -80 -480 -113 -140 -44 -186 -59 -205
-67 -11 -4 -47 -18 -80 -30 -67 -25 -93 -36 -178 -74 -32 -14 -60 -26 -62 -26
-7 0 -273 -133 -317 -158 -40 -23 -87 -50 -140 -81 -141 -80 -532 -355 -623
-437 -12 -11 -50 -44 -85 -74 -252 -213 -554 -529 -806 -845 -212 -265 -426
-582 -609 -900 -48 -85 -261 -509 -285 -570 -4 -11 -17 -41 -29 -67 -12 -26
-21 -50 -21 -53 0 -3 -8 -24 -19 -48 -10 -23 -29 -69 -41 -102 -12 -33 -26
-69 -31 -80 -12 -29 -124 -377 -149 -465 -33 -117 -67 -258 -90 -375 -6 -33
-15 -78 -20 -100 -9 -40 -13 -62 -31 -185 -48 -325 -70 -751 -50 -975 33 -364
52 -490 111 -740 40 -168 134 -462 153 -482 4 -3 7 -12 7 -19 0 -31 153 -342
241 -489 88 -147 246 -363 335 -460 11 -11 63 -69 118 -128 54 -59 104 -107
110 -107 17 0 239 226 235 238 -2 6 -42 51 -89 99 -145 149 -195 210 -325 392
-85 119 -198 323 -274 493 -65 146 -134 349 -172 503 -63 257 -85 394 -110
700 -12 147 -7 435 10 605 6 52 15 142 20 200 6 58 15 128 21 155 9 46 16 82
40 215 19 107 31 160 51 230 11 41 25 89 29 105 10 35 46 169 55 205 4 14 10
34 15 45 4 11 13 36 20 55 7 19 16 44 20 55 4 11 13 36 20 55 7 19 16 44 20
55 4 11 17 45 28 75 46 126 63 166 142 335 50 108 152 314 173 350 13 22 43
76 67 120 86 159 352 569 415 641 6 7 35 44 65 84 71 93 221 283 229 290 3 3
49 52 101 110 219 242 183 205 370 382 131 123 201 184 300 258 18 14 70 55
115 91 46 36 114 85 151 109 38 23 114 72 169 108 55 36 136 84 180 107 44 23
125 66 180 95 55 29 123 61 150 72 28 11 66 26 85 35 42 18 78 33 105 43 11 5
36 15 55 23 30 14 196 69 285 96 30 9 177 45 250 61 94 20 260 45 405 60 131
13 452 13 534 0 33 -5 99 -14 146 -20 47 -6 96 -15 110 -20 14 -4 52 -13 85
-20 71 -15 249 -72 314 -101 307 -137 548 -299 740 -498 53 -55 181 -228 181
-245 0 -3 13 -33 29 -68 16 -35 38 -90 49 -123 19 -58 27 -88 53 -205 18 -75
18 -425 1 -510 -8 -36 -18 -87 -23 -115 -22 -112 -75 -286 -119 -390 -129
-302 -314 -578 -535 -801 -104 -104 -216 -190 -295 -226 -19 -9 -57 -26 -85
-38 -75 -34 -195 -62 -195 -46 0 4 14 21 31 39 93 97 192 288 219 424 6 32 15
76 20 98 5 22 6 61 3 86 -6 53 15 106 88 221 27 42 97 231 117 318 30 127 41
256 30 363 -9 86 -15 118 -41 207 -20 70 -93 206 -148 275 -159 200 -470 390
-744 454 -27 7 -66 16 -85 21 -61 15 -203 30 -281 30 -160 0 -481 -46 -619
-90 -14 -4 -45 -13 -70 -20 -148 -42 -238 -78 -422 -171 -310 -156 -569 -369
-898 -739 -47 -52 -87 -97 -90 -100 -3 -3 -35 -43 -70 -90 -36 -47 -67 -87
-70 -90 -25 -25 -141 -186 -191 -265 -34 -55 -79 -125 -100 -156 -36 -54 -49
-75 -116 -199 -17 -30 -44 -80 -60 -110 -41 -74 -67 -126 -92 -182 -25 -56
-55 -126 -82 -185 -27 -59 -36 -82 -81 -208 -59 -165 -78 -223 -99 -302 -10
-40 -28 -108 -40 -150 -24 -92 -42 -180 -59 -283 -6 -41 -15 -93 -20 -115 -35
-162 -47 -696 -21 -900 13 -100 36 -239 51 -305 4 -19 13 -60 20 -90 24 -111
29 -128 78 -266 120 -343 319 -674 543 -904 100 -103 260 -245 351 -312 46
-34 115 -85 154 -115 40 -29 74 -53 77 -53 3 0 42 -22 87 -50 45 -27 83 -50
85 -50 1 0 33 -18 69 -40 36 -22 68 -40 71 -40 2 0 35 -14 72 -31 77 -36 164
-75 208 -94 44 -20 321 -110 380 -124 28 -7 66 -16 85 -21 35 -9 92 -22 173
-39 23 -5 83 -15 132 -21 50 -6 119 -15 155 -21 89 -13 684 -13 822 0 222 22
379 45 558 82 64 13 299 69 335 79 176 52 360 112 430 140 11 4 47 18 80 30
33 12 79 31 102 41 24 11 45 19 48 19 2 0 33 13 67 28 35 16 79 35 98 42 38
16 346 171 423 213 26 15 66 38 90 51 23 13 80 47 127 76 47 29 114 70 150 92
70 43 208 139 360 252 86 64 338 262 350 275 3 4 43 40 90 81 184 161 513 480
532 514 9 16 -6 35 -103 133 -63 62 -119 112 -126 111 -6 -2 -116 -107 -245
-233 -242 -239 -433 -406 -673 -586 -212 -160 -477 -333 -675 -442 -30 -17
-73 -41 -95 -54 -43 -24 -237 -120 -322 -159 -144 -65 -164 -74 -168 -74 -3 0
-24 -8 -48 -19 -129 -57 -404 -153 -552 -191 -111 -29 -276 -69 -330 -81 -27
-5 -68 -14 -90 -19 -22 -5 -76 -14 -120 -20 -44 -6 -107 -15 -140 -20 -200
-30 -806 -43 -936 -21 -30 5 -97 15 -149 21 -52 6 -111 15 -130 20 -37 9 -90
21 -180 41 -72 16 -338 104 -404 134 -28 12 -73 33 -101 45 -90 40 -159 74
-210 103 -54 32 -88 51 -152 88 -150 85 -481 354 -583 475 -14 16 -48 56 -76
89 -148 172 -307 463 -388 707 -40 122 -50 160 -77 286 -5 23 -13 61 -18 85
-50 222 -50 766 -1 1035 31 164 55 284 70 335 5 20 14 52 19 70 5 17 17 59 26
92 16 61 50 164 65 200 13 31 40 106 57 155 8 25 30 77 48 115 18 39 43 93 55
120 28 64 81 169 110 220 23 41 51 90 95 170 28 51 238 368 269 406 12 14 32
40 46 59 24 32 104 134 137 175 113 140 378 411 494 505 148 121 369 255 513
312 28 11 65 26 81 33 64 29 253 85 350 105 119 24 152 29 250 40 158 16 223
13 395 -21 228 -46 520 -219 613 -364 89 -138 130 -307 107 -447 -14 -89 -49
-208 -62 -208 -5 0 -39 25 -76 56 -151 125 -374 192 -542 164 -74 -13 -73 -13
-205 40 -85 34 -324 44 -465 20 -211 -37 -459 -158 -647 -316 -100 -85 -251
-250 -343 -374 -14 -18 -35 -45 -46 -59 -87 -105 -344 -578 -344 -632 0 -5 -4
-17 -10 -27 -28 -51 -96 -295 -119 -427 -5 -33 -15 -89 -22 -125 -16 -94 -13
-434 6 -550 23 -144 30 -176 69 -290 107 -319 307 -581 621 -810 33 -24 77
-56 97 -72 20 -15 39 -28 41 -28 2 0 57 -31 121 -70 64 -38 118 -70 121 -70 3
0 40 -16 82 -36 43 -19 92 -42 108 -49 49 -23 335 -112 400 -125 33 -7 71 -16
85 -20 14 -5 70 -14 125 -20 55 -7 124 -16 154 -21 75 -12 433 -11 561 1 268
27 367 44 610 102 69 16 150 38 180 48 30 9 78 24 105 33 89 28 240 85 378
144 215 92 553 280 761 423 90 62 340 249 371 277 12 10 50 43 85 73 307 259
671 656 956 1040 107 143 394 578 394 595 0 3 40 72 93 160 19 32 244 486 257
520 4 11 17 41 29 67 12 26 21 50 21 53 0 3 8 24 19 48 10 23 29 69 41 102 12
33 26 69 31 80 12 29 124 377 149 465 33 117 67 258 90 375 6 33 15 78 20 100
9 40 13 62 31 185 48 325 70 751 50 975 -33 364 -52 490 -111 740 -40 168
-134 462 -153 482 -4 3 -7 12 -7 19 0 31 -153 342 -241 489 -88 147 -246 363
-335 460 -11 11 -63 69 -118 128 -54 59 -104 107 -110 107 -6 0 -62 -51 -125
-114z"/>
<path d="M7854 9887 c-2 -7 -3 -82 -2 -167 l3 -155 168 -3 167 -2 0 170 0 170
-165 0 c-126 0 -167 -3 -171 -13z"/>
<path d="M340 7170 l0 -170 170 0 170 0 0 170 0 170 -170 0 -170 0 0 -170z"/>
<path d="M0 5970 l0 -170 170 0 170 0 0 170 0 170 -170 0 -170 0 0 -170z"/>
<path d="M9900 3070 l0 -170 170 0 170 0 0 170 0 170 -170 0 -170 0 0 -170z"/>
<path d="M9047 1014 c-4 -4 -7 -81 -7 -170 l0 -164 -167 -2 -168 -3 0 -165 0
-165 168 -3 167 -2 0 -170 0 -170 175 0 175 0 0 170 0 170 168 2 167 3 0 165
0 165 -165 5 -165 5 -5 165 -5 165 -166 3 c-91 1 -168 -1 -172 -4z"/>
<path d="M2220 170 l0 -170 170 0 170 0 0 170 0 170 -170 0 -170 0 0 -170z"/>
</g>
</svg>
